<?xml version="1.0" encoding="UTF-8"?> <svg xmlns="http://www.w3.org/2000/svg" xmlns:xlink="http://www.w3.org/1999/xlink" version="1.1" id="Layer_1" x="0px" y="0px" viewBox="0 0 1080 1080" style="enable-background:new 0 0 1080 1080;" xml:space="preserve"> <style type="text/css"> .st0{fill:#5351A5;} </style> <g> <path class="st0" d="M1070.1,1022.5L844.6,797c41.6-52,66.7-117.8,66.7-189.4c0-138.6-93.7-259.6-228-294.3 c-25.2-6.3-50.5-9.1-75.7-9.1v-169V33.9c0-18.6-15.1-33.7-33.7-33.7h-540C15.1,0.1,0,15.2,0,33.9v540c0,18.6,15.1,33.7,33.7,33.7 h270c0,25.2,3.2,50.6,9.5,75.9c34.6,134.1,155.6,227.8,294.3,227.8c71.6,0,137.4-25.1,189.4-66.7c0,0,225.4,225.4,225.5,225.5 c12.6,12.6,34.6,13.1,47.7,0C1083.3,1057,1083.3,1035.7,1070.1,1022.5z M67.5,540.1V67.6H540v67.5v176.2 c-55.5,12.5-107.7,41.5-147.9,81.8c-39.9,40-68.5,91.8-81,147H67.5z M607.5,843.9c-92.6,0-174.8-53.9-213.3-135h44.5v-67.5h-64.9 c-1.6-11.3-2.6-22.6-2.6-33.7c0-126.2,109.5-236.3,236.2-236.3c11.2,0,22.5,1,33.8,2.6v64.9h67.5v-44.4 c81.1,38.5,135,120.7,135,213.2C843.7,737.9,737.8,843.9,607.5,843.9z"></path> <path class="st0" d="M202.5,135.1H135v67.5h67.5V135.1z"></path> <path class="st0" d="M337.5,135.1H270v67.5h67.5V135.1z"></path> <path class="st0" d="M270,202.6h-67.5v67.5H270V202.6z"></path> <path class="st0" d="M202.5,270.1H135v67.5h67.5V270.1z"></path> <path class="st0" d="M270,337.6h-67.5v67.5H270V337.6z"></path> <path class="st0" d="M337.5,270.1H270v67.5h67.5V270.1z"></path> <path class="st0" d="M405,202.6h-67.5v67.5H405V202.6z"></path> <path class="st0" d="M472.5,135.1H405v67.5h67.5V135.1z"></path> <path class="st0" d="M202.5,405.1H135v67.5h67.5V405.1z"></path> <path class="st0" d="M708.8,472.6h-67.5v67.5h67.5V472.6z"></path> <path class="st0" d="M540,641.4h-67.5v67.5H540V641.4z"></path> <path class="st0" d="M641.2,641.4h-67.5v67.5h135v-135h-67.5V641.4z"></path> </g> </svg> 