<?xml version="1.0" encoding="UTF-8"?> <svg xmlns="http://www.w3.org/2000/svg" xmlns:xlink="http://www.w3.org/1999/xlink" version="1.1" id="Layer_1" x="0px" y="0px" viewBox="0 0 1080 1080" style="enable-background:new 0 0 1080 1080;" xml:space="preserve"> <style type="text/css"> .st0{fill:#5351A5;} </style> <g> <g> <path class="st0" d="M540,1080C242.2,1080,0,837.8,0,540C0,242.2,242.2,0,540,0s540,242.2,540,540C1080,837.8,837.8,1080,540,1080 z M540,81C286.9,81,81,286.9,81,540s205.9,459,459,459s459-205.9,459-459S793.1,81,540,81z"></path> </g> <g> <polygon class="st0" points="345.2,651.7 402.5,594.4 499.5,691.5 499.5,249.2 580.5,249.2 580.5,691.5 677.5,594.4 734.8,651.7 540,846.2 "></polygon> </g> </g> </svg> 