<?xml version="1.0" encoding="UTF-8"?> <svg xmlns="http://www.w3.org/2000/svg" xmlns:xlink="http://www.w3.org/1999/xlink" version="1.1" id="Layer_1" x="0px" y="0px" viewBox="0 0 1080 1080" style="enable-background:new 0 0 1080 1080;" xml:space="preserve"> <style type="text/css"> .st0{fill:#5351A5;} </style> <g> <g> <path class="st0" d="M1072,480.1c-15.1-100.8-58.4-194.8-125.3-272c-21.3-23.8-45.7-44.7-72.3-62c-38.7-26.6-83.8-42.9-130.5-47.1 c-17.5-1.6-35.1-1-50.6,1.4l-106.6,16.2c-10.8,1.9-21.6,4.6-31.8,7.9c-12.9,4-25.5,9.2-37.5,15.4H104.2 c-8.1,0.1-16.1,1.4-23.8,4.5c-7.6,3.1-14.4,7.6-20.1,13.4c-5.8,5.8-10.3,12.6-13.3,20.2c-3.1,7.6-4.6,15.6-4.4,23.6v58.2 c0.1,7.3,1.4,14.6,4.1,21.3c-3.1,3.9-5.8,8.2-7.9,12.9c-3.5,7.9-5.3,16.2-5.3,24.7V377c0,1.5,0.1,3,0.3,4.5 c-8.2,4-15.4,9.9-21,17.2C4.5,409.2,0,422.3,0,435.7v58.2c0.1,16.2,6.4,31.4,17.8,42.9c11.5,11.4,26.7,17.8,42.9,17.8h28.6v54.5 c-14.3,1.2-28,7.5-38.1,17.6c-11.5,11.5-17.8,26.8-17.8,43.1v58.5c0,10.3,2.7,20.5,7.8,29.5c-5.1,9-7.8,19.2-7.8,29.6v58 c0,16,6.5,31.7,17.9,43.1c11.3,11.3,27.1,17.8,43.1,17.8h409.7c51,47,117.1,73.8,186.9,75.6h6c11.2-0.1,22.4-1.1,33.2-2.9 l93.6-15.8l5.2-0.2c19-3.1,37.6-8.5,55.3-16.2C1027.4,884.4,1106.3,688.2,1072,480.1z M437.5,203.4c-3.8,4.2-7.4,8.5-10.9,12.8 c-1.9,2.4-3.8,4.9-5.4,7.4l-2.5,3.4c-2.3,3.1-5.3,7-7.3,10.1l-4.9,7.3c-1.4,2-4.1,6.4-6.5,10.5l-1.2,2l-293,1.7l-0.5-55.2H437.5z M340.3,565.6c1.4,14.5,3.4,28.9,6,43.2l-192.8,0.6v-54.7H339c0.2,1.5,0.5,3.2,0.9,4.9C339.8,561.4,339.8,564.3,340.3,565.6z M379.7,726.9l-283.6,1.4v-56.8h264.5c2.5,8.5,5.2,17,8.4,26.4c1,3.1,2.1,6.2,3.1,9C374.6,713.8,377.1,720.5,379.7,726.9z M367.8,320.4c-2.1,5.6-4.2,11.6-6.4,18.3l-3.1,10.4c-2.3,7.9-4.5,15.6-6.8,25.1l-255.4,0.4l-1.7-54.2H367.8z M62.7,493.4v-55.9 h277.6c-1,8.4-1.8,16.9-2.5,25.7l-0.1,4.4l0.1,24.9L62.7,493.4z M96.1,843.2l-1.7-54.5h315.2c3.3,5.8,6.8,11.5,10.6,17.9l4.5,6.8 c5.3,8.2,10.8,16.7,16.1,22.6c1.4,2.3,3,4.5,4.3,6c0.3,0.4,0.6,0.8,0.8,1.2H96.1z M537.7,851.9l-0.5-0.5 c-8-7.2-15.6-14.8-22.7-22.8c-23-25.8-42.5-54.6-58.3-85.4c-18.2-35-32.1-72.2-41.4-110.8c-3.4-12.9-6.2-26.9-8.8-42.7 c-3.7-22.4-6-45.1-6.7-67.2v-30.2c0.2-17.5,1.4-35.4,3.8-54.7c0-1.5,0.4-3.6,0.9-5.8c0.4-1.9,0.8-3.9,1-5.9 c0.5-4.1,1.4-9.1,2.2-13.6c2-9.9,4.1-19.6,6.6-29.2c2.4-9.5,6.2-21.1,9.7-31.2c5.9-16.6,12.8-32.8,20.8-48.1 c3-5.9,6.3-11.7,9.6-17.4c14.3-24.5,33-46.2,54.9-64c-11.7,17-21.8,35-30.2,54c-18.4,40-31.1,82.2-37.4,125.6 c-6.3,40.8-8,82.3-4.9,123.1c1.2,19.4,3.4,39,6.5,58.4c3.6,21.7,8.5,43.6,14.6,65.1c11.9,43.4,29.3,85.2,51.5,124 c26.7,48.7,62.1,91.2,105.2,126.3c3,2.4,6.1,4.8,9.2,7.1C591.2,894.9,562.1,876.5,537.7,851.9z M859.1,888.3L859.1,888.3 c-13.1,5.7-27,9.7-39.1,11.9c-3.7,0-7.6,0.5-11.6,1.2l-12.3,0.7c-7.1,0.4-14.1,0.4-20.8,0c-25.4-2.2-49.8-9-72.7-20.3 c-17.7-8.8-34.5-19.5-49.8-31.6c-36.6-30.3-66.8-66.8-89.8-108.6c-19.9-34.5-35.2-71.4-45.8-110c-5.4-19.1-9.8-38.7-12.9-58.3 c-2.9-17.6-4.9-35.4-5.8-53.3c-2.7-36.8-1.1-73.8,4.8-110.2c5.5-37.7,16.3-74.2,32.4-108.8c14-31.5,33.5-59.9,57.9-84.3 c5.8-5.7,12-11.1,18-16.1l5.6-2.6c11.9-8.8,24.8-16.2,38.2-22.1c6.2-2.6,12.6-5,19-7l6.1-0.5c5.5-1.6,11-2.9,16.3-3.8l2.2,0.3 l2.2-0.4c12.5-2.5,25.3-3.5,37.5-2.9c36.2,3.3,71.2,15.9,101.2,36.7c22.1,14.7,42.2,32.3,59.7,52.1c58.8,68.1,96.8,151,110,240.3 C1040,670.8,976.8,837.9,859.1,888.3z"></path> </g> <g> <path class="st0" d="M856.3,676c-9.8,13.3-22.6,23.8-37.4,30.5l2.1,30.2c0.3,4.2-0.3,8.3-1.6,12.2c-1.3,3.8-3.4,7.5-6.1,10.6 c-2.8,3.2-6,5.7-9.7,7.5c-3.6,1.8-7.6,2.9-11.9,3.2h-0.4c-9.8,0-17.4-3-23.2-8.4c-5.8-5.5-9.4-12.8-9.9-20.8l-2.1-30.7 c-19.1-6.3-36.2-18-48.9-33.5c-14.9-18-23.6-40.9-24.4-64.3c-0.5-7.9,2.1-16,7.6-22.3c5.6-6.3,13.2-10.1,21.5-10.7 c8.2-0.7,16.4,2.1,22.8,7.6c6.4,5.6,10.2,13.2,10.8,21.5c-0.2,12.1,3.8,22.4,11.2,30.4c7.4,7.9,17.5,12.5,28.4,13 c2.8-0.3,7.1-1.7,10.9-3.8c3.8-2.2,7.2-5.2,9.8-8.8c7.2-10.1,10.7-22.5,9.6-34.8c-0.7-12.9-5.8-24.6-14.5-33.5 c-3.3-3.7-7-6.2-11.1-7.9c-4.1-1.7-8.5-2.4-12.9-2.2l-6,0c-27.1-1.5-51.7-12.9-69.9-32c-18.2-19.1-28.5-44.2-28.8-70.6 c-2.5-22.2,3-46.1,15.4-66.1c10.6-17.2,26-31.1,44.1-39.8l-1.9-25.7c-0.3-4.1,0.2-8.2,1.6-12.2c1.3-3.9,3.3-7.5,6.1-10.6 c2.5-3,5.9-5.6,9.6-7.4c3.7-1.8,7.7-2.9,11.8-3.2c4.3-0.3,8.3,0.2,12.2,1.5c3.9,1.3,7.5,3.4,10.6,6.1c3.2,2.8,5.7,6,7.5,9.7 c1.8,3.7,2.9,7.7,3.2,11.9l1.8,25.8c19,6.3,36.2,18,49,33.6c15,18.2,23.6,41.1,24.3,64.5c0.6,7.7-2.2,16-7.7,22.3 c-5.5,6.3-13.1,10.1-21.4,10.7c-8.4,0.6-16.4-2.1-22.8-7.6c-6.3-5.5-10.1-13.1-10.8-21.5c0.2-12.1-3.8-22.5-11.2-30.4 c-7.5-7.9-17.5-12.5-28.4-13c-5.9,0.5-13.2,4.5-18.9,11.1c-8.2,9.5-12.4,23-11.3,36.9c1,14.5,7.1,27.5,16.6,35.7 c4.5,3.9,11.9,8.4,21.4,7.7l0.2,0c13.4-0.8,26.8,1.3,39.4,6.3c12.5,4.9,23.9,12.6,33.2,22.2c18.8,19.8,30.2,45.6,32.1,72.8 C879.8,626.7,872.1,653.9,856.3,676z"></path> </g> </g> </svg> 