<?xml version="1.0" encoding="UTF-8"?> <svg xmlns="http://www.w3.org/2000/svg" xmlns:xlink="http://www.w3.org/1999/xlink" version="1.1" id="Layer_1" x="0px" y="0px" viewBox="0 0 1080 1080" style="enable-background:new 0 0 1080 1080;" xml:space="preserve"> <style type="text/css"> .st0{fill:#5351A5;} .st1{fill-rule:evenodd;clip-rule:evenodd;fill:#5351A5;} </style> <g> <path class="st0" d="M540,601.6c37.4,0,67.8-30.3,67.8-67.9c0-37.6-30.3-67.9-67.8-67.9c-37.5,0-67.8,30.3-67.8,67.9 C472.2,571.3,502.5,601.6,540,601.6z"></path> <path class="st1" d="M585.2,289c100.9,18.7,180.7,98.4,199.2,199.5h71.8V579h-71.8c-18.6,101.1-98.2,181-199.2,199.5v71.9H495 v-71.9C394,759.8,314.3,680.1,295.8,579H224v-90.4h71.8C314.4,387.4,394,307.5,495,289v-71.9h90.3V289z M698.1,533.8 c0,87.4-70.8,158.4-158.1,158.4c-87.3,0-158.1-70.9-158.1-158.4c0-87.5,70.8-158.4,158.1-158.4 C627.3,375.4,698.1,446.4,698.1,533.8z"></path> <path class="st0" d="M540,1080l-12.5-4.7c-171.9-64.5-273.9-125-341.4-202.1c-72.6-83-105-185.6-105-332.7V209.1L540,0l459,209.1 v331.4c0,275-112.7,410-446.6,534.8l-12.5,4.7H540z M152.1,254.9v285.7c0,240.1,91,349.8,387.9,463.4 c296.9-112.9,387.9-222.8,387.9-463.4V254.9L540,78.2L152.1,254.9z"></path> </g> </svg> 