<?xml version="1.0" encoding="UTF-8"?> <svg xmlns="http://www.w3.org/2000/svg" xmlns:xlink="http://www.w3.org/1999/xlink" version="1.1" id="Layer_1" x="0px" y="0px" viewBox="0 0 1080 1080" style="enable-background:new 0 0 1080 1080;" xml:space="preserve"> <style type="text/css"> .st0{fill:#5351A5;} </style> <g> <path class="st0" d="M578.6,694.3H154.3c-10.2,0-20,4.1-27.3,11.3c-7.2,7.2-11.3,17-11.3,27.3V810c0,10.2,4.1,20,11.3,27.3 c7.2,7.2,17,11.3,27.3,11.3h424.3c10.2,0,20-4.1,27.3-11.3c7.2-7.2,11.3-17,11.3-27.3v-77.1c0-10.2-4-20-11.3-27.3 C598.6,698.3,588.8,694.3,578.6,694.3z M790.7,0C631.2,0,501.4,129.8,501.4,289.3c0,159.5,129.8,289.3,289.3,289.3 S1080,448.8,1080,289.3C1080,129.8,950.2,0,790.7,0z M826.9,429.3v4.6c0,9.6-3.8,18.8-10.6,25.6c-6.8,6.8-16,10.6-25.6,10.6 c-9.6,0-18.8-3.8-25.6-10.6c-6.8-6.8-10.6-16-10.6-25.6h-9.1c-9.6,0-18.8-3.8-25.6-10.6c-6.8-6.8-10.6-16-10.6-25.6 s3.8-18.8,10.6-25.6c6.8-6.8,16-10.6,25.6-10.6h54.2c4.6-0.3,8.9-2.3,12-5.7c3.2-3.4,4.9-7.8,4.9-12.4s-1.8-9-4.9-12.4 c-3.1-3.4-7.5-5.4-12-5.7h-18.1c-23.9,0-46.9-9.5-63.9-26.5c-17-16.9-26.5-39.9-26.5-63.9c0-40.3,26.7-74.2,63.3-85.8v-4.6 c0-9.6,3.8-18.8,10.6-25.6c6.8-6.8,16-10.6,25.6-10.6c9.6,0,18.8,3.8,25.6,10.6c6.8,6.8,10.6,16,10.6,25.6 c9.6,0,18.8,3.8,25.6,10.6c6.8,6.8,10.6,16,10.6,25.6c0,9.6-3.8,18.8-10.6,25.6c-6.8,6.8-16,10.6-25.6,10.6h-45.2 c-4.6,0.3-8.9,2.3-12,5.7c-3.1,3.4-4.9,7.8-4.9,12.4c0,4.6,1.8,9,4.9,12.4c3.2,3.4,7.5,5.4,12,5.7h18.1c24,0,47,9.5,63.9,26.5 c17,16.9,26.5,39.9,26.5,63.9c-0.1,19.2-6.2,37.8-17.6,53.2C861.2,412.2,845.2,423.6,826.9,429.3z M270,115.7h-40.2 c-4.8,0-9.6-1-14.1-2.8c-4.5-1.9-8.6-4.6-12-8c-3.4-3.4-6.2-7.5-8-12c-1.9-4.5-2.8-9.3-2.8-14.1V38.6c0-10.2-4.1-20-11.3-27.3 C174.3,4.1,164.5,0,154.3,0s-20,4.1-27.3,11.3c-7.2,7.2-11.3,17-11.3,27.3v40.2c0,20.4-16.6,37-37,37H38.6 c-10.2,0-20.1,4.1-27.3,11.3C4.1,134.2,0,144.1,0,154.3c0,10.2,4.1,20,11.3,27.3c7.2,7.2,17.1,11.3,27.3,11.3h40.2 c20.4,0,37,16.6,37,36.9V270c0,10.2,4.1,20,11.3,27.3c7.2,7.2,17,11.3,27.3,11.3s20.1-4.1,27.3-11.3c7.2-7.2,11.3-17,11.3-27.3 v-40.2c0-20.4,16.6-36.9,36.9-36.9H270c10.2,0,20-4.1,27.3-11.3c7.2-7.2,11.3-17,11.3-27.3c0-10.2-4.1-20-11.3-27.3 C290,119.8,280.2,115.7,270,115.7z M1041.4,848.6h-40.2c-9.8,0-19.2-3.9-26.1-10.8c-6.9-6.9-10.8-16.3-10.8-26.1v-40.2 c0-10.2-4.1-20-11.3-27.3c-7.2-7.2-17-11.3-27.3-11.3c-10.2,0-20.1,4.1-27.3,11.3c-7.2,7.2-11.3,17-11.3,27.3v40.2 c0,20.4-16.6,37-36.9,37H810c-10.2,0-20,4.1-27.3,11.3c-7.2,7.2-11.3,17-11.3,27.3c0,10.2,4.1,20,11.3,27.3 c7.2,7.2,17,11.3,27.3,11.3h40.2c20.4,0,36.9,16.6,36.9,37v40.2c0,10.2,4.1,20,11.3,27.3c7.2,7.2,17,11.3,27.3,11.3 c10.2,0,20-4.1,27.3-11.3c7.2-7.2,11.3-17,11.3-27.3v-40.2c0-20.4,16.6-37,37-37h40.2c10.2,0,20.1-4.1,27.3-11.3 c7.2-7.2,11.3-17,11.3-27.3c0-10.2-4.1-20-11.3-27.3C1061.5,852.6,1051.6,848.6,1041.4,848.6z M462.9,925.7H38.6 c-10.2,0-20.1,4.1-27.3,11.3C4.1,944.2,0,954.1,0,964.3v77.1c0,10.2,4.1,20,11.3,27.3c7.2,7.2,17.1,11.3,27.3,11.3h424.3 c10.2,0,20-4.1,27.3-11.3s11.3-17,11.3-27.3v-77.1c0-10.2-4-20-11.3-27.3C482.9,929.8,473.1,925.7,462.9,925.7z M115.7,1041.4 v-77.1h77.1v77.1H115.7z M308.6,1041.4v-77.1h77.1v77.1H308.6z M462.9,462.9H38.6c-10.2,0-20.1,4.1-27.3,11.3 C4.1,481.4,0,491.2,0,501.4v77.1c0,10.2,4.1,20,11.3,27.3c7.2,7.2,17.1,11.3,27.3,11.3h424.3c10.2,0,20-4.1,27.3-11.3 c7.2-7.2,11.3-17,11.3-27.3v-77.1c0-10.2-4-20-11.3-27.3C482.9,466.9,473.1,462.9,462.9,462.9z M115.7,578.6v-77.1h77.1v77.1H115.7 z M308.6,578.6v-77.1h77.1v77.1H308.6z"></path> </g> </svg> 