<?xml version="1.0" encoding="UTF-8"?> <svg xmlns="http://www.w3.org/2000/svg" xmlns:xlink="http://www.w3.org/1999/xlink" version="1.1" id="Layer_1" x="0px" y="0px" viewBox="0 0 1080 1080" style="enable-background:new 0 0 1080 1080;" xml:space="preserve"> <style type="text/css"> .st0{fill:#5351A5;} </style> <g> <rect x="779.2" class="st0" width="41.2" height="41.2"></rect> <rect x="259.8" class="st0" width="41.2" height="94.9"></rect> <rect x="367.3" y="35.8" class="st0" width="41.2" height="41.2"></rect> <rect x="313.6" y="358.2" class="st0" width="41.2" height="77"></rect> <path class="st0" d="M478,189.7c-21.3-16.1-44.7-29.3-69.5-39.3v-43h-41.2v28.5c-32.8-9.4-85.9-19-99,12.8l-23.9,57.8 c-7.3,17.4,1.7,36.5,26.8,56.9c22.2,16.7,46.5,30.3,72.2,40.4c25.3,10.9,52,18.3,79.5,22.1c3.6,0.3,7.2,0.4,10.8,0.4 c1.1,0,2.2,0,3.3,0c23,0,37.8-7.4,44-21.9l24-57.9C511.9,229.1,502.9,210,478,189.7z M390.5,187.6l0.2,0.1 c24.5,9,46.8,22.1,66.5,39.2c-25.9-1.9-51-8.3-74.9-19.3c-24.5-9-46.8-22.2-66.5-39.2C341.8,170.2,366.8,176.6,390.5,187.6z M450.8,267.6l-6.9,16.7c-9.4,1.8-40.6-0.6-86.6-19.4c-47.2-19.3-68.5-39.2-73.9-46.7l7-16.8c22.8,18.6,48.2,33.5,75.6,44.1 c25.3,10.9,52,18.3,79.7,22.1H450.8z"></path> <rect x="582.2" y="89.5" class="st0" width="41.2" height="112.9"></rect> <rect x="779.2" y="71.6" class="st0" width="41.2" height="77"></rect> <rect x="671.7" y="179.1" class="st0" width="41.2" height="41.2"></rect> <rect x="725.5" y="483.5" class="st0" width="41.2" height="59.1"></rect> <path class="st0" d="M844.7,312l-24.5-57.5c-14.7-34.4-80.9-21-138,3.1C643,274.1,597,302,585.4,330.8c-3.6,8.9-3.7,17.4-0.3,25.3 l24.9,57.5c6.1,14,20.7,21.1,43.6,21.1h0c32.6-2.2,64-10.4,93.5-24.2c19.3-8.2,83.3-37.8,97.4-73.4 C848,328.2,848.1,319.8,844.7,312z M772.6,274.6c-19.2,17.2-41.1,30.6-65.4,40.2c-23.5,11.4-48.5,18.3-74.5,20.5 c19.2-17.1,41.1-30.5,65.2-39.8l0.2-0.1C721.7,284,746.7,277.1,772.6,274.6z M731.5,372.5L731.5,372.5 c-45.2,19.7-76.7,22.5-86.3,20.7l-7-16.5l5.3,0c27.3-4.2,53.8-12,78.9-23.3c25.5-10.6,49.4-24.6,71.2-41.7l4.1-3.7l7.6,16.7 C799.6,332.8,775.7,353.5,731.5,372.5z"></path> <rect x="510.5" y="358.2" class="st0" width="41.2" height="41.2"></rect> <path class="st0" d="M608.3,550c-16.8-18.4-35.8-34.8-56.6-48.5v-71.6h-41.2v47.3c-12.7-6.5-25.9-11.8-39.5-16 c-30.6-9.2-51.3-5.8-61.6,10.1l-34,52.5c-10.3,16-4.9,36.3,16,60.4c18.5,20.4,39.8,38.1,63.2,52.7c22.9,15.4,47.7,27.6,73.9,36.1 c9.7,3.2,19.6,4.9,29.5,5.1c1,0.1,2,0.1,3.1,0.1c5.2,0,10.4-1.1,15.1-3.3c5.7-2.7,10.5-6.8,14.2-12l34-52.5 C634.6,594.6,629.2,574.3,608.3,550z M452.7,498.9c25.2,6.5,48.7,17.5,70,32.5l0.2,0.1c22.5,13.2,42.1,30.2,58.4,50.6 c-25.2-6.5-48.7-17.5-70.1-32.7C488.5,536.2,468.9,519.2,452.7,498.9z M558.1,636.6h-0.3c-9.7,0-39.8-8-80.7-34.4 c-40.9-26.5-60.9-51.3-64.7-60l9.8-15.5l3.3,4.3c18.6,20.3,39.9,38,63.1,52.7c22.9,15.4,47.9,27.5,74.2,36.2c1.7,0.5,3.4,1,5.2,1.4 L558.1,636.6z"></path> <path class="st0" d="M1070.3,983.1c-4.5-18.1-13.8-34.7-26.9-47.9c-11.5-11.6-25.6-20.3-41.1-25.5l57.3-28.7 c4.9-2.5,8.5-6.7,10.2-11.9c1.7-5.1,1.3-10.9-1.2-15.7c-12.1-24.1-32.7-42.5-58.1-51.9c-25.4-9.4-53-8.8-77.9,1.6L676.1,911.2 L602.9,865h98.2c17.4,0,33.9-6.8,46.2-19.1c12.4-12.3,19.2-28.7,19.2-46.2c0-17.5-6.8-33.9-19.2-46.2 c-12.3-12.4-28.8-19.2-46.2-19.2H29.7c-5.4,0-10.7,2.2-14.6,6c-3.8,3.8-6,9.1-6,14.6v268.6c0,5.4,2.2,10.7,6,14.6 c3.8,3.9,9.1,6,14.6,6h69v15.2c0,5.4,2.2,10.7,6,14.6c3.8,3.8,9.1,6,14.6,6h143.3c5.4,0,10.7-2.2,14.5-6c3.9-3.8,6-9.1,6-14.6 v-86.9h83.1l283.1,106.2c2.4,0.9,4.8,1.4,6.9,1.2c0.6,0.1,1.1,0.1,1.7,0.1c0.7,0,1.3,0,2.1-0.1l394-71.6c2.8-0.5,5.4-1.6,7.8-3.1 c2.3-1.6,4.3-3.7,5.8-6c1.5-2.4,2.5-5,3-7.7C1071.1,988.6,1071,985.8,1070.3,983.1z M50.2,1002.9V775.5h48.4v227.5H50.2z M241.9,1038.8H139.8V775.5h102.1V1038.8z M654.2,1036.7l-277-104.2c-2.3-0.8-4.6-1.2-7-1.2h-87.1V775.5h418.2 c6.4,0,12.5,2.5,17.1,7c4.5,4.5,7.1,10.8,7.1,17.1s-2.6,12.6-7.1,17.1c-4.6,4.6-10.7,7.1-17.1,7.1h-170c-4.6-0.5-9.1,1.1-12.8,3.9 c-3.7,2.7-6.5,6.5-7.7,10.9c-1.3,4.3-1.1,9,0.5,13.2c1.6,4.2,4.6,7.8,8.3,10.1l143.3,89.5c2.8,1.8,6,2.8,9.3,3 c3.2,0.3,6.6-0.3,9.6-1.6l266.5-112.1c12.5-5.1,26.2-6.2,39.4-3.1c12.1,2.8,22.9,8.9,31.6,17.7L654.2,1036.7z M793.9,1013.3 l124.9-63.1l42.5-4.6h0c12.2-1.5,24.2,0.6,35.2,5.9c9.7,4.8,18,11.9,24.2,20.7L793.9,1013.3z"></path> </g> </svg> 