<?xml version="1.0" encoding="utf-8"?>
<!-- Generator: Adobe Illustrator 27.0.1, SVG Export Plug-In . SVG Version: 6.00 Build 0)  -->
<svg version="1.1" id="Layer_1" xmlns="http://www.w3.org/2000/svg" xmlns:xlink="http://www.w3.org/1999/xlink" x="0px" y="0px"
	 viewBox="0 0 943 1080" style="enable-background:new 0 0 943 1080;" xml:space="preserve">
<style type="text/css">
	.st0{fill:#273040;}
	.st1{fill:url(#SVGID_1_);}
	.st2{fill:#04CEBB;}
	.st3{fill:url(#SVGID_00000018214455989913623760000002240969973908142732_);}
	.st4{fill:url(#SVGID_00000050634121802568062890000003895940217387649967_);}
	.st5{fill:url(#SVGID_00000176757035285064553370000011470007386170827412_);}
	.st6{fill:url(#SVGID_00000010299913965867727750000011945144588930766236_);}
	.st7{fill:url(#SVGID_00000085241148763158466460000005537422564204822926_);}
	.st8{fill:url(#SVGID_00000142897028403983455850000002168411059593785517_);}
	.st9{fill:url(#SVGID_00000064322643723580588180000011292905942000310461_);}
	.st10{fill:url(#SVGID_00000050624546389621678740000015684871087683471807_);}
	.st11{fill:url(#SVGID_00000113354239502184168370000001030051132680278950_);}
	.st12{fill:url(#SVGID_00000023280016508853506460000013374296218258910870_);}
	.st13{fill:url(#SVGID_00000163756091938540019970000014725600813660038061_);}
</style>
<g>
	<path class="st0" d="M628.2,545.2l-73.7,127.2l67.5-0.3l39.8-68.8L628.2,545.2z M626.3,148.1c-1.1-1.5-1.6-3.1-1.7-4.7L523.9,85.6
		c-6.1-3.5-13.3-1.2-16.7,4l72.1,94.6l83.5,12.3L626.3,148.1z M628.2,545.2l-73.7,127.2l67.5-0.3l39.8-68.8L628.2,545.2z
		 M315.4,545.2l-33.6,58.6l39.8,69.6l67-0.3L315.4,545.2z M628.2,545.2l-73.7,127.2l67.5-0.3l39.8-68.8L628.2,545.2z M315.4,545.2
		l-33.6,58.6l39.8,69.6l67-0.3L315.4,545.2z M886.7,603.9l-22.6-55l-32.1,78.6l41.7,103.4l0.7,0.4c8.3,4.9,18.8-1.1,18.8-10.8V609.2
		C890.3,608.7,887.7,606.8,886.7,603.9z M628.2,545.2l-73.7,127.2l67.5-0.3l39.8-68.8L628.2,545.2z M315.4,545.2l-33.6,58.6
		l39.8,69.6l67-0.3L315.4,545.2z M841.8,793.4l-114.3,16.1l-50,65.6l57.4-8.3c2.8-0.4,5.5,0.6,7.4,2.5l96.7-56.8
		C846,808.4,847,799,841.8,793.4z M78.2,545.2l-22.4,53.7c-0.9,2.3-2.7,4-5,4.7v120.1c0,6.9,5.4,11.9,11.4,12.5l46.9-112.6
		L78.2,545.2z M315.4,545.2l-33.6,58.6l39.8,69.6l67-0.3L315.4,545.2z M569.1,831.8c-1,0.1-2,0.2-3.1,0.2c-6.9,0-13.5-3.4-17.5-9.3
		c-4.5-6.8-4.9-15.5-0.7-22.5l33.6-58l-67.5,0.3l-24.6,42.5c-4,6.6-10.8,10.4-18.4,10.4h-0.1c-7.6,0-14.4-4.1-18.3-10.7l-24-41.9
		l-67,0.3l32.3,56.5c4.1,7.2,3.8,15.8-0.9,22.6c-4,5.8-10.4,9.2-17.3,9.2c-1,0-2.1-0.1-3.2-0.2l-58.8-8.7l51.8,66.6l57.4,8.5
		c10.5,1.6,18.3,10.8,18,21.3l-1,66l20.6,26.6c6.2,8.1,18.4,8,24.6-0.1l14-18.4v-74.1c0.1-10.3,8.1-19.3,18.2-20.7l60.8-8.8l50.4-66
		L569.1,831.8z M110.2,792.4L106,795c-8.1,5-7.9,16.8,0.3,21.6l92,52.7c1.8-2.7,5-4.2,8.3-3.6l58.2,8.6l-51.3-66.6L110.2,792.4z
		 M628.2,545.2l-73.7,127.2l67.5-0.3l39.8-68.8L628.2,545.2z M416.4,85.8l-93.8,54.7c0.1,2-0.4,4-1.6,5.7l-0.1,0.1l-39.6,50.7
		l83.2-12.7l70.4-90.7C433.1,85.8,423.9,81.5,416.4,85.8z M269.4,401.1l47.9,0.2l33.4-58.3l-66-0.3c-8.1-0.1-15.3-4.7-18.9-11.9
		c-3.5-7.3-2.6-15.9,2.3-22.2l34.6-44.6l-83.2,12.3l-33.2,42.6c-4.2,5.4-10.5,8.2-16.7,8.2c-3.6,0-7.3-0.9-10.7-2.8L106.1,293
		l-36.9,5.5c-10,1.5-16,12-12.1,21.4l6.9,16.7l65.4,38.2c9.1,5.2,12.9,16.6,8.8,26.5l-23.7,56.8l31.7,76.1l23.7-56.9
		c3.1-7.5,10.1-12.4,18.2-12.9c8.1-0.6,15.7,3.5,19.8,10.6l33.7,58.8l33.6-58.6L251,432.7c-3.7-6.7-3.7-14.5,0-21.1
		C254.9,405.1,261.7,401.1,269.4,401.1z M511.4,343.7l-80.3-0.3l-33.4,58.3l147.7,0.6L511.4,343.7z M869.7,295.2l-24.8-3.5l-60.4,35
		c-3.3,1.9-6.9,2.8-10.6,2.8c-6.5,0-12.7-3-16.8-8.3l-35.5-46.9l-82.4-11.6l36.2,47.5c5,6.6,5.8,15.2,2.1,22.5
		c-3.6,7.1-10.8,11.6-18.7,11.6c-0.1,0-0.1,0-0.2,0l-66.2-0.3l34,58.6l47.4,0.2c7.6,0,14.4,4,18.3,10.6c3.9,6.7,3.9,14.7,0.1,21.4
		l-23.6,40.7l33.6,58.1l32.3-55.7c4.1-7.2,11.8-11.1,20-10.6c8,0.5,15,5.7,18,13.2l21.6,53.4l31.5-78.1l-21.4-51.8
		c-4.1-9.9-0.2-20.9,9.1-26.3l0.1-0.1l56.2-30.8l12.2-30.3C885.7,307.1,879.7,296.6,869.7,295.2z M315.4,545.2l-33.6,58.6l39.8,69.6
		l67-0.3L315.4,545.2z M315.4,545.2l-33.6,58.6l39.8,69.6l67-0.3L315.4,545.2z M628.2,545.2l-73.7,127.2l67.5-0.3l39.8-68.8
		L628.2,545.2z M315.4,545.2l-33.6,58.6l39.8,69.6l67-0.3L315.4,545.2z M628.2,545.2l-73.7,127.2l67.5-0.3l39.8-68.8L628.2,545.2z
		 M315.4,545.2l-33.6,58.6l39.8,69.6l67-0.3L315.4,545.2z M628.2,545.2l-73.7,127.2l67.5-0.3l39.8-68.8L628.2,545.2z"/>
	<linearGradient id="SVGID_1_" gradientUnits="userSpaceOnUse" x1="614.7326" y1="849.3118" x2="752.0133" y2="990.8731">
		<stop  offset="2.391286e-02" style="stop-color:#3C4B85"/>
		<stop  offset="0.5207" style="stop-color:#354179"/>
		<stop  offset="0.993" style="stop-color:#323D73"/>
	</linearGradient>
	<path class="st1" d="M762,706.4l-283,370.7c-1.3,1.7-3.1,2.6-5,2.8c4.9-0.2,9.8-1.5,14.2-4c0-0.1,0.1-0.1,0.2-0.1l150.6-88
		l288.8-168.7c4.7-2.7,8.4-6.6,11-11.1L762,706.4z M838.9,812.6L642,928.2c-2,1.2-4.1-1.3-2.7-3.1L763,762.9
		c4.7-6.2,13.3-7.9,20.1-4.1l55.7,32.1C847.1,795.7,847.2,807.7,838.9,812.6z"/>
	<path class="st2" d="M3.6,282c-0.8-2-0.7-4.2,0.1-5.9c-2.4,4.4-3.7,9.4-3.7,14.6l0.2,506c0,5.5,1.5,10.7,4.1,15.3L181.3,709
		L3.6,282z M125.5,701l-55.7,33.4c-8.4,5-19-1-19-10.8V486.8c0-2.3,3.2-2.9,4-0.8L132,681.6C135,688.8,132.2,697.1,125.5,701z"/>
	
		<linearGradient id="SVGID_00000034773249989856053880000008885711508515596434_" gradientUnits="userSpaceOnUse" x1="437.8301" y1="88.6219" x2="937.4389" y2="274.3503">
		<stop  offset="0" style="stop-color:#04CEBB"/>
		<stop  offset="1.022690e-02" style="stop-color:#20C7BA"/>
		<stop  offset="0.1404" style="stop-color:#4A94BE"/>
		<stop  offset="0.233" style="stop-color:#5779BA"/>
		<stop  offset="0.2787" style="stop-color:#566FB9"/>
		<stop  offset="1" style="stop-color:#566FB9"/>
	</linearGradient>
	<path style="fill:url(#SVGID_00000034773249989856053880000008885711508515596434_);" d="M928.3,261.1L485.5,3.8
		c-4.6-2.5-9.7-3.8-14.7-3.8v203.8l462.8,64.5c2.1,0.3,3.8,1.5,5,3C936.1,267.2,932.6,263.6,928.3,261.1z M724.9,205.7l-206.3-30.5
		c-7.6-1.1-13.3-7.5-13.4-15.2V96.5c0-9.6,10.4-15.7,18.8-10.9l202.3,116.2C728.2,203,727.2,206.1,724.9,205.7z"/>
	
		<linearGradient id="SVGID_00000122682035332227513530000003429845440552190369_" gradientUnits="userSpaceOnUse" x1="287.8409" y1="441.2202" x2="788.348" y2="640.3465">
		<stop  offset="0" style="stop-color:#04CEBB"/>
		<stop  offset="0.1998" style="stop-color:#489AB9"/>
		<stop  offset="0.3969" style="stop-color:#5774B2"/>
		<stop  offset="1" style="stop-color:#476199"/>
	</linearGradient>
	<path style="fill:url(#SVGID_00000122682035332227513530000003429845440552190369_);" d="M470.8,203.8L181.3,709l580.7-2.6
		L470.8,203.8z M674.7,671.9l-405.9,1.8c-12,0.1-19.5-12.9-13.6-23.3l202.4-353.1c6-10.4,20.9-10.4,26.9-0.1l203.6,351.4
		C694.1,658.9,686.6,671.8,674.7,671.9z"/>
	
		<linearGradient id="SVGID_00000088831755744340358040000009798067395453148084_" gradientUnits="userSpaceOnUse" x1="788.6438" y1="727.7811" x2="1069.8293" y2="377.2369">
		<stop  offset="0" style="stop-color:#566FB9"/>
		<stop  offset="0.7847" style="stop-color:#2A3461"/>
	</linearGradient>
	<path style="fill:url(#SVGID_00000088831755744340358040000009798067395453148084_);" d="M939.2,272.5c0.8,1.8,1,3.9,0.1,5.9
		L762,706.4L939,807.9c2.6-4.5,4-9.7,4-15.1V287.1C943,281.9,941.7,276.9,939.2,272.5z M893.2,720.5c0,9.7-10.5,15.7-18.8,10.8
		L817.7,698c-6.8-3.9-9.6-12.1-6.7-19.3l78.2-191.4c0.9-2.1,4-1.5,4,0.8V720.5z"/>
	
		<linearGradient id="SVGID_00000150099948265464006710000014966981492746149793_" gradientUnits="userSpaceOnUse" x1="192.5206" y1="91.0885" x2="383.7135" y2="288.2432">
		<stop  offset="0.3292" style="stop-color:#C6EAE2"/>
		<stop  offset="0.4037" style="stop-color:#C0E9E1"/>
		<stop  offset="0.5032" style="stop-color:#AFE7DD"/>
		<stop  offset="0.617" style="stop-color:#93E3D8"/>
		<stop  offset="0.7413" style="stop-color:#6CDDD0"/>
		<stop  offset="0.8726" style="stop-color:#3BD6C6"/>
		<stop  offset="1" style="stop-color:#04CEBB"/>
	</linearGradient>
	<path style="fill:url(#SVGID_00000150099948265464006710000014966981492746149793_);" d="M455.9,4c-0.1,0-0.1,0-0.1,0.1
		c-0.1,0.1-0.2,0.1-0.3,0.2L271.7,112.8L14.9,264.5c-4.5,2.6-8.1,6.3-10.6,10.6c1.1-1.6,2.8-2.8,5-3.1l461.5-68.1V0
		C465.6,0,460.5,1.4,455.9,4z M435.2,160.1c0.1,7.8-5.6,14.4-13.2,15.6l-205,31.2c-2.3,0.4-3.4-2.7-1.4-3.9L416.4,85.8
		c8.4-4.9,18.8,1.2,18.8,10.8V160.1z"/>
	
		<linearGradient id="SVGID_00000137846672141311826340000013934297679192280251_" gradientUnits="userSpaceOnUse" x1="516.5002" y1="996.6685" x2="40.0227" y2="744.5016">
		<stop  offset="3.494723e-03" style="stop-color:#3E4C85"/>
		<stop  offset="0.221" style="stop-color:#425593"/>
		<stop  offset="0.3923" style="stop-color:#5375B3"/>
		<stop  offset="0.4642" style="stop-color:#487EAB"/>
		<stop  offset="0.5359" style="stop-color:#3D85A2"/>
		<stop  offset="0.6007" style="stop-color:#228F91"/>
		<stop  offset="0.684" style="stop-color:#049487"/>
	</linearGradient>
	<path style="fill:url(#SVGID_00000137846672141311826340000013934297679192280251_);" d="M467.5,1077.2L181.3,709L4.3,811.9
		c2.6,4.5,6.4,8.4,11.1,11.1c0,0,0,0,0.1,0L458,1075.9c0,0,0,0,0.1,0c4.4,2.6,9.4,3.9,14.3,4
		C470.5,1079.8,468.7,1078.8,467.5,1077.2z M301.5,928.4L106.3,816.5c-8.2-4.8-8.4-16.6-0.3-21.6l54.7-33.5
		c6.7-3.9,15.3-2.3,20.1,3.9l123.4,159.9C305.6,927.1,303.5,929.5,301.5,928.4z"/>
	
		<linearGradient id="SVGID_00000106853502337772095060000011083004771451379863_" gradientUnits="userSpaceOnUse" x1="327.2646" y1="457.1284" x2="6.4939" y2="271.2461">
		<stop  offset="0" style="stop-color:#AFE6DD"/>
		<stop  offset="0.3023" style="stop-color:#04CEBB"/>
		<stop  offset="0.6403" style="stop-color:#06B5A5"/>
		<stop  offset="0.9995" style="stop-color:#007E73"/>
	</linearGradient>
	<path style="fill:url(#SVGID_00000106853502337772095060000011083004771451379863_);" d="M9.3,271.9c-2.1,0.3-3.9,1.5-5,3.1
		c-0.2,0.2-0.3,0.4-0.4,0.7c0,0,0,0.1,0,0.1c0,0.1-0.1,0.2-0.1,0.2c0,0,0,0,0,0c-0.8,1.8-1,3.9-0.1,5.9l177.7,427l289.5-505.2
		L9.3,271.9z M388.7,276.7L202,602.6c-6.4,11.2-22.9,10.2-27.8-1.8L57.2,319.8c-3.9-9.4,2.1-19.9,12.1-21.3L373,253.6
		C385.8,251.7,395.2,265.4,388.7,276.7z"/>
	
		<linearGradient id="SVGID_00000014608951751269600560000013723159914699900854_" gradientUnits="userSpaceOnUse" x1="327.2679" y1="457.1323" x2="6.489" y2="271.2453">
		<stop  offset="0" style="stop-color:#AFE6DD"/>
		<stop  offset="0.3023" style="stop-color:#04CEBB"/>
		<stop  offset="0.6403" style="stop-color:#06B5A5"/>
		<stop  offset="0.9995" style="stop-color:#007E73"/>
	</linearGradient>
	<path style="fill:url(#SVGID_00000014608951751269600560000013723159914699900854_);" d="M9.3,271.9c-2.1,0.3-3.9,1.5-5,3.1
		c-0.2,0.2-0.3,0.5-0.4,0.7c0,0,0,0.1-0.1,0.1c0,0.1-0.1,0.2-0.1,0.2c0,0,0,0,0,0c-0.8,1.8-1,3.9-0.1,5.9l177.7,427l289.5-505.2
		L9.3,271.9z M388.7,276.7L202,602.6c-6.4,11.2-22.9,10.2-27.8-1.8l-116.9-281c-3.9-9.4,2.1-19.9,12.1-21.4L373,253.6
		C385.8,251.7,395.2,265.4,388.7,276.7z"/>
	
		<linearGradient id="SVGID_00000146457082369309039660000011348064028431752594_" gradientUnits="userSpaceOnUse" x1="166.5715" y1="844.0582" x2="740.2198" y2="906.6134">
		<stop  offset="0" style="stop-color:#4DA9A0"/>
		<stop  offset="0.4117" style="stop-color:#596FB5"/>
		<stop  offset="0.8399" style="stop-color:#476199"/>
		<stop  offset="0.9995" style="stop-color:#273660"/>
	</linearGradient>
	<path style="fill:url(#SVGID_00000146457082369309039660000011348064028431752594_);" d="M181.3,709l286.1,368.1
		c1.3,1.6,3.1,2.6,5,2.8c0,0,0,0,0,0c0.3,0,0.6,0,0.9,0c0.1,0,0.2,0,0.2,0c0.2,0,0.3,0,0.5,0c0,0,0,0,0,0c1.9-0.2,3.7-1.2,5-2.8
		l283-370.7L181.3,709z M284.1,743.5l375.4-1.7c12.9-0.1,20.2,14.7,12.4,25l-186.7,244.5c-6.2,8.1-18.4,8.2-24.6,0.1L271.9,768.6
		C264,758.4,271.2,743.6,284.1,743.5z"/>
	
		<linearGradient id="SVGID_00000105424004021285376990000002029676959166702493_" gradientUnits="userSpaceOnUse" x1="166.575" y1="844.0558" x2="740.2227" y2="906.6109">
		<stop  offset="0" style="stop-color:#4DA9A0"/>
		<stop  offset="0.4117" style="stop-color:#596FB5"/>
		<stop  offset="0.8399" style="stop-color:#476199"/>
		<stop  offset="0.9995" style="stop-color:#273660"/>
	</linearGradient>
	<path style="fill:url(#SVGID_00000105424004021285376990000002029676959166702493_);" d="M181.3,709l286.2,368.2
		c1.3,1.7,3.1,2.6,5,2.8c0.3,0,0.6,0,0.9,0c0.1,0,0.2,0,0.2,0c0.2,0,0.4,0,0.5,0c0,0,0,0,0,0c1.9-0.2,3.7-1.2,5-2.8l283-370.7
		L181.3,709z M485.3,1011.3c-6.2,8.1-18.4,8.2-24.6,0.1L271.9,768.6c-7.9-10.2-0.7-25,12.2-25.1l375.4-1.7c12.9,0,20.2,14.7,12.4,25
		L485.3,1011.3z"/>
	
		<linearGradient id="SVGID_00000098904185916710904110000010544579024786501030_" gradientUnits="userSpaceOnUse" x1="562.1451" y1="130.3645" x2="921.9153" y2="577.9532">
		<stop  offset="0" style="stop-color:#60D5C9"/>
		<stop  offset="0.1555" style="stop-color:#5C9BBE"/>
		<stop  offset="0.3033" style="stop-color:#567EB4"/>
		<stop  offset="0.4041" style="stop-color:#5273B2"/>
		<stop  offset="0.7855" style="stop-color:#425F92"/>
		<stop  offset="0.8435" style="stop-color:#466296"/>
		<stop  offset="0.9064" style="stop-color:#536BA1"/>
		<stop  offset="0.9713" style="stop-color:#697AB3"/>
		<stop  offset="1" style="stop-color:#7583BD"/>
	</linearGradient>
	<path style="fill:url(#SVGID_00000098904185916710904110000010544579024786501030_);" d="M939.3,272.5c0-0.1,0-0.1-0.1-0.2
		c0,0,0,0,0-0.1c-0.2-0.3-0.4-0.7-0.6-1c0,0,0,0,0,0c-1.1-1.6-2.8-2.7-5-3l-462.8-64.5L762,706.5l177.3-428.1
		C940.2,276.4,940.1,274.3,939.3,272.5z M740.5,599.5L553.1,276.1c-6.5-11.2,2.8-25,15.6-23.2l301,42.3c10,1.4,16,11.8,12.2,21.2
		L768.3,597.5C763.5,609.5,747,610.7,740.5,599.5z"/>
	
		<linearGradient id="SVGID_00000158012305172558112570000010070875028902533287_" gradientUnits="userSpaceOnUse" x1="562.1525" y1="130.3654" x2="921.9178" y2="577.9479">
		<stop  offset="0" style="stop-color:#60D5C9"/>
		<stop  offset="0.1555" style="stop-color:#5C9BBE"/>
		<stop  offset="0.3033" style="stop-color:#567EB4"/>
		<stop  offset="0.4041" style="stop-color:#5273B2"/>
		<stop  offset="0.7855" style="stop-color:#425F92"/>
		<stop  offset="0.8435" style="stop-color:#466296"/>
		<stop  offset="0.9064" style="stop-color:#536BA1"/>
		<stop  offset="0.9713" style="stop-color:#697AB3"/>
		<stop  offset="1" style="stop-color:#7583BD"/>
	</linearGradient>
	<path style="fill:url(#SVGID_00000158012305172558112570000010070875028902533287_);" d="M939.2,272.5c0-0.1,0-0.1-0.1-0.2
		c0,0,0,0,0,0c-0.2-0.3-0.4-0.7-0.6-1c0,0,0,0,0,0c-1.1-1.6-2.9-2.7-5-3l-462.8-64.5L762,706.4l177.3-428.1
		C940.2,276.4,940.1,274.3,939.2,272.5z M740.5,599.5L553.1,276.1c-6.5-11.2,2.8-25,15.6-23.2l301,42.3c10,1.4,16,11.9,12.2,21.2
		L768.3,597.5C763.5,609.5,747,610.7,740.5,599.5z"/>
</g>
</svg>
