<?xml version="1.0" encoding="UTF-8"?>
<svg id="Layer_1" xmlns="http://www.w3.org/2000/svg" width="1920" height="1080" xmlns:xlink="http://www.w3.org/1999/xlink" viewBox="0 0 1920 1080">
  <defs>
    <pattern id="hexagon_pattern" x="0" y="0" width="44" height="76" patternTransform="translate(-2962.962 -3124.222) scale(.583)" patternUnits="userSpaceOnUse" viewBox="0 0 44 76">
      <rect width="44" height="76" style="fill:none;"/>
      <polygon points="22 63.298 22 88.702 44 101.403 66 88.702 66 63.298 44 50.597 22 63.298" style="fill:none; stroke:#2A4A6A; stroke-miterlimit:10; stroke-width:1;"/>
      <polygon points="-22 63.298 -22 88.702 0 101.403 22 88.702 22 63.298 0 50.597 -22 63.298" style="fill:none; stroke:#2A4A6A; stroke-miterlimit:10; stroke-width:1;"/>
      <polygon points="44 25.298 44 50.702 66 63.403 88 50.702 88 25.298 66 12.597 44 25.298" style="fill:none; stroke:#2A4A6A; stroke-miterlimit:10; stroke-width:1;"/>
      <polygon points="0 25.298 0 50.702 22 63.403 44 50.702 44 25.298 22 12.597 0 25.298" style="fill:none; stroke:#2A4A6A; stroke-miterlimit:10; stroke-width:1;"/>
      <polygon points="-44 25.298 -44 50.702 -22 63.403 0 50.702 0 25.298 -22 12.597 -44 25.298" style="fill:none; stroke:#2A4A6A; stroke-miterlimit:10; stroke-width:1;"/>
      <polygon points="22 -12.702 22 12.702 44 25.403 66 12.702 66 -12.702 44 -25.403 22 -12.702" style="fill:none; stroke:#2A4A6A; stroke-miterlimit:10; stroke-width:1;"/>
      <polygon points="-22 -12.702 -22 12.702 0 25.403 22 12.702 22 -12.702 0 -25.403 -22 -12.702" style="fill:none; stroke:#2A4A6A; stroke-miterlimit:10; stroke-width:1;"/>
    </pattern>
  </defs>
  <rect y="0" width="1920" height="1080" style="fill:url(#hexagon_pattern);"/>
</svg>
