<?xml version="1.0" encoding="utf-8"?>
<!-- Generator: Adobe Illustrator 27.0.1, SVG Export Plug-In . SVG Version: 6.00 Build 0)  -->
<svg version="1.1" id="Layer_1" xmlns="http://www.w3.org/2000/svg" xmlns:xlink="http://www.w3.org/1999/xlink" x="0px" y="0px"
	 viewBox="0 0 1500 433" style="enable-background:new 0 0 1500 433;" xml:space="preserve">
<style type="text/css">
	.st0{fill:#FFFFFF;}
	.st1{fill:#29303F;}
	.st2{fill:url(#SVGID_1_);}
	.st3{fill:#5DCABA;}
	.st4{fill:url(#SVGID_00000057145987921804398200000014689551165413782916_);}
	.st5{fill:url(#SVGID_00000128451696595008405510000018397449900604230825_);}
	.st6{fill:url(#SVGID_00000077325035883880434410000006700410848266082210_);}
	.st7{fill:url(#SVGID_00000118390872322817871550000012199577384939433098_);}
	.st8{fill:url(#SVGID_00000125592369950572736150000012897772353618551965_);}
	.st9{fill:url(#SVGID_00000063598554631519347670000009605822187600351407_);}
	.st10{fill:url(#SVGID_00000076583296210678114020000013188925023608311976_);}
	.st11{fill:url(#SVGID_00000057841019702278244910000018292043538618779060_);}
	.st12{fill:url(#SVGID_00000017507372762835641550000012325745674446691245_);}
	.st13{fill:url(#SVGID_00000098218107134121993690000009431235694636921495_);}
	.st14{fill:url(#SVGID_00000031201664279580110040000007984908615486211766_);}
</style>
<g>
	<g>
		<path class="st0" d="M909.5,278.8c0,13.5,6.4,20.4,19.1,20.4h9.6v17.1h-14.4c-23.5,0-34.4-11.3-34.4-35.6v-123h-20.3v-17.1h20.3
			v-37.9l20.1-11.7v49.6h43.1v17.1h-43.1V278.8z"/>
	</g>
	<path class="st0" d="M487,110.6h47.5c21.5,0,37.5,1.4,47.5,5.2c20.9,8,33.8,26.3,33.8,49.5c0,19.5-9.2,35.8-23.8,45
		c-14.6,9.2-35.8,10.3-64.1,10.3h-20.3v95.6H487V110.6z M507.6,130.6v69.9c11.7,0.3,23.5,0,34.1,0c17.8,0,31.5-1.1,40.7-8.6
		c7.2-5.7,12-16.3,12-26.6c0-10.6-5.2-20.9-12.9-26.9c-9.2-6.9-21.5-7.7-37.5-7.7H507.6z"/>
	<path class="st0" d="M641.7,105.4h19.5v210.8h-19.5V105.4z"/>
	<path class="st0" d="M826.5,160.4h19.2v152.1h-19.2v-26.1c-16.6,20-37.5,29.8-61.3,29.8c-44.4,0-77.9-36.9-77.9-80.2
		c0-43.2,34.4-79.6,78.5-79.6c24.6,0,45.5,10.6,60.7,31.8V160.4z M707.3,236.6c0,32.9,25.8,61.9,59.8,61.9
		c31.2,0,60.7-23.5,60.7-61.3c0-35.2-26.3-61.9-60.4-61.9C732.5,175.3,707.3,203.9,707.3,236.6z"/>
	<path class="st0" d="M1110.7,236.6c0,43.2-33.5,79.6-79.3,79.6c-45.8,0-79.3-36.4-79.3-79.6c0-43.5,33.8-80.5,79.3-80.5
		C1076.9,156.1,1110.7,193.1,1110.7,236.6z M972.1,236.9c0,33.2,24.9,60.4,59.3,60.4c34.1,0,59.3-27.2,59.3-60.4
		c0-33.8-26.9-61.9-59.3-61.9C998.7,175,972.1,203.1,972.1,236.9z"/>
	<path class="st0" d="M1156.5,191.3c15.7-20.6,34.6-31.2,57-31.2c33.2,0,56.4,22.9,56.4,70.7v85.3h-19.5v-82.8
		c0-35.8-11.2-55.6-40.7-55.6c-16.3,0-29.8,7.2-40.1,20.6c-11.5,14.9-13.2,29.8-13.2,53.8v63.9H1137V164.1h19.5V191.3z"/>
	<path class="st0" d="M1325,117.5c0,8.9-7.4,16.3-16.3,16.3c-8.9,0-16-7.4-16-16.3c0-9.2,7.4-16,16-16
		C1317.5,101.4,1325,108.6,1325,117.5z M1299.2,164.1h19.5v152.1h-19.5V164.1z"/>
	<path class="st0" d="M1500,281.8c-14.9,22.6-40.7,34.4-71.3,34.4c-50.1,0-83.6-36.1-83.6-78.5c0-44.7,34.9-81.3,85-81.3
		c29.2,0,55.8,12,69.9,35.5l-15.7,9.7c-13.5-17.8-32.1-26.3-55-26.3c-38.7,0-64.1,28.3-64.1,61c0,33.2,25.2,62.1,64.4,62.1
		c22,0,40.4-8.9,54.7-26.6L1500,281.8z"/>
</g>
<g>
	<path class="st1" d="M251.8,218.6l-29.5,51l27-0.1l16-27.6L251.8,218.6z M251,59.4c-0.4-0.6-0.6-1.2-0.7-1.9L210,34.4
		c-2.4-1.4-5.3-0.5-6.7,1.6l28.9,37.9l33.5,4.9L251,59.4z M251.8,218.6l-29.5,51l27-0.1l16-27.6L251.8,218.6z M126.4,218.6
		L113,242.1l16,27.9l26.8-0.1L126.4,218.6z M251.8,218.6l-29.5,51l27-0.1l16-27.6L251.8,218.6z M126.4,218.6L113,242.1l16,27.9
		l26.8-0.1L126.4,218.6z M355.4,242.1l-9.1-22.1l-12.9,31.5l16.7,41.4l0.3,0.2c3.3,2,7.6-0.4,7.6-4.3v-44.6
		C356.9,244.1,355.8,243.3,355.4,242.1z M251.8,218.6l-29.5,51l27-0.1l16-27.6L251.8,218.6z M126.4,218.6L113,242.1l16,27.9
		l26.8-0.1L126.4,218.6z M337.4,318.1l-45.8,6.5l-20,26.3l23-3.3c1.1-0.2,2.2,0.2,3,1l38.7-22.8
		C339.1,324.1,339.5,320.3,337.4,318.1z M31.3,218.6l-9,21.5c-0.4,0.9-1.1,1.6-2,1.9v48.1c0,2.8,2.1,4.8,4.6,5L43.7,250L31.3,218.6z
		 M126.4,218.6L113,242.1l16,27.9l26.8-0.1L126.4,218.6z M228.1,333.5c-0.4,0-0.8,0.1-1.2,0.1c-2.8,0-5.4-1.4-7-3.7
		c-1.8-2.7-2-6.2-0.3-9l13.5-23.3l-27.1,0.1l-9.9,17c-1.6,2.6-4.3,4.2-7.4,4.2h0c-3.1,0-5.8-1.6-7.3-4.3l-9.6-16.8l-26.9,0.1
		l13,22.6c1.6,2.9,1.5,6.3-0.4,9c-1.6,2.3-4.2,3.7-6.9,3.7c-0.4,0-0.9,0-1.3-0.1l-23.5-3.5l20.8,26.7l23,3.4
		c4.2,0.6,7.3,4.3,7.2,8.5l-0.4,26.4l8.3,10.6c2.5,3.2,7.4,3.2,9.9-0.1l5.6-7.4v-29.7c0-4.1,3.2-7.7,7.3-8.3l24.4-3.5l20.2-26.5
		L228.1,333.5z M44.2,317.7l-1.7,1c-3.3,2-3.2,6.7,0.1,8.6l36.9,21.1c0.7-1.1,2-1.7,3.3-1.4l23.3,3.5l-20.6-26.7L44.2,317.7z
		 M251.8,218.6l-29.5,51l27-0.1l16-27.6L251.8,218.6z M166.9,34.5l-37.6,21.9c0.1,0.8-0.2,1.6-0.6,2.3l-0.1,0.1L112.8,79l33.3-5.1
		l28.2-36.3C173.6,34.5,169.9,32.7,166.9,34.5z M108,160.8l19.2,0.1l13.4-23.4l-26.4-0.1c-3.3-0.1-6.1-1.9-7.6-4.8
		c-1.4-2.9-1.1-6.4,0.9-8.9l13.9-17.9L88,110.8l-13.3,17.1c-1.7,2.1-4.2,3.3-6.7,3.3c-1.5,0-2.9-0.4-4.3-1.1l-21.1-12.5l-14.8,2.2
		c-4,0.6-6.4,4.8-4.8,8.6l2.8,6.7l26.2,15.3c3.6,2.1,5.2,6.6,3.5,10.6L46,183.6l12.7,30.5l9.5-22.8c1.2-3,4-5,7.3-5.2
		c3.2-0.2,6.3,1.4,7.9,4.2l13.5,23.6l13.5-23.5l-9.7-16.9c-1.5-2.7-1.5-5.8,0-8.5C102.2,162.4,104.9,160.8,108,160.8z M205,137.8
		l-32.2-0.1L159.4,161l59.2,0.3L205,137.8z M348.6,118.4l-9.9-1.4l-24.2,14c-1.3,0.8-2.8,1.1-4.2,1.1c-2.6,0-5.1-1.2-6.7-3.3
		l-14.2-18.8l-33-4.6l14.5,19c2,2.6,2.3,6.1,0.8,9c-1.5,2.9-4.3,4.6-7.5,4.6c0,0,0,0-0.1,0l-26.6-0.1l13.6,23.5l19,0.1
		c3,0,5.8,1.6,7.3,4.2c1.5,2.7,1.5,5.9,0,8.6l-9.4,16.3l13.5,23.3l12.9-22.3c1.6-2.9,4.7-4.5,8-4.2c3.2,0.2,6,2.3,7.2,5.3l8.6,21.4
		l12.6-31.3l-8.6-20.8c-1.6-4-0.1-8.4,3.6-10.6l0.1,0l22.5-12.3l4.9-12.1C355,123.1,352.6,119,348.6,118.4z M126.4,218.6L113,242.1
		l16,27.9l26.8-0.1L126.4,218.6z M126.4,218.6L113,242.1l16,27.9l26.8-0.1L126.4,218.6z M251.8,218.6l-29.5,51l27-0.1l16-27.6
		L251.8,218.6z M126.4,218.6L113,242.1l16,27.9l26.8-0.1L126.4,218.6z M251.8,218.6l-29.5,51l27-0.1l16-27.6L251.8,218.6z
		 M126.4,218.6L113,242.1l16,27.9l26.8-0.1L126.4,218.6z M251.8,218.6l-29.5,51l27-0.1l16-27.6L251.8,218.6z"/>
	<linearGradient id="SVGID_1_" gradientUnits="userSpaceOnUse" x1="246.4139" y1="340.4764" x2="301.4398" y2="397.2182">
		<stop  offset="2.391286e-02" style="stop-color:#3F4B80"/>
		<stop  offset="0.5043" style="stop-color:#384275"/>
		<stop  offset="0.993" style="stop-color:#343D6F"/>
	</linearGradient>
	<path class="st2" d="M305.5,283.2L192,431.8c-0.5,0.7-1.2,1-2,1.1c2-0.1,3.9-0.6,5.7-1.6c0,0,0.1,0,0.1-0.1l60.4-35.3L372,328.3
		c1.9-1.1,3.4-2.6,4.4-4.5L305.5,283.2z M336.3,325.8l-78.9,46.3c-0.8,0.5-1.6-0.5-1.1-1.2l49.6-65c1.9-2.5,5.3-3.2,8-1.6l22.3,12.9
		C339.6,319,339.6,323.8,336.3,325.8z"/>
	<path class="st3" d="M1.4,113.1c-0.3-0.8-0.3-1.7,0.1-2.4c-1,1.8-1.5,3.8-1.5,5.9l0.1,202.8c0,2.2,0.6,4.3,1.7,6.1l70.9-41.2
		L1.4,113.1z M50.3,281L28,294.4c-3.3,2-7.6-0.4-7.6-4.3v-94.9c0-0.9,1.3-1.2,1.6-0.3l30.9,78.4C54.1,276.1,53,279.5,50.3,281z"/>
	
		<linearGradient id="SVGID_00000055694313780572568240000003852733990716869532_" gradientUnits="userSpaceOnUse" x1="175.5021" y1="35.5825" x2="375.7624" y2="110.0288">
		<stop  offset="0" style="stop-color:#5DCABA"/>
		<stop  offset="1.022690e-02" style="stop-color:#5FC3B9"/>
		<stop  offset="0.1404" style="stop-color:#5D91B9"/>
		<stop  offset="0.233" style="stop-color:#5E78B4"/>
		<stop  offset="0.2787" style="stop-color:#5B6EB3"/>
		<stop  offset="1" style="stop-color:#5B6EB3"/>
	</linearGradient>
	<path style="fill:url(#SVGID_00000055694313780572568240000003852733990716869532_);" d="M372.1,104.7L194.6,1.6
		c-1.8-1-3.9-1.5-5.9-1.5v81.7l185.5,25.8c0.8,0.1,1.5,0.6,2,1.2C375.2,107.1,373.8,105.7,372.1,104.7z M290.6,82.5l-82.7-12.2
		c-3-0.4-5.3-3-5.4-6.1V38.7c0-3.9,4.2-6.3,7.5-4.3L291.1,81C291.9,81.4,291.5,82.7,290.6,82.5z"/>
	
		<linearGradient id="SVGID_00000049910964698624852540000015323741648620526515_" gradientUnits="userSpaceOnUse" x1="115.3772" y1="176.9065" x2="316" y2="256.7242">
		<stop  offset="0" style="stop-color:#5DCABA"/>
		<stop  offset="0.1998" style="stop-color:#5D97B5"/>
		<stop  offset="0.3969" style="stop-color:#5D73AC"/>
		<stop  offset="1" style="stop-color:#4C6094"/>
	</linearGradient>
	<path style="fill:url(#SVGID_00000049910964698624852540000015323741648620526515_);" d="M188.7,81.8l-116,202.5l232.8-1
		L188.7,81.8z M270.4,269.4l-162.7,0.7c-4.8,0-7.8-5.2-5.4-9.3l81.1-141.5c2.4-4.2,8.4-4.2,10.8,0L275.8,260
		C278.2,264.1,275.2,269.3,270.4,269.4z"/>
	
		<linearGradient id="SVGID_00000043415540393449786100000014705224616532343713_" gradientUnits="userSpaceOnUse" x1="316.1232" y1="291.7672" x2="428.8275" y2="151.2627">
		<stop  offset="0" style="stop-color:#5B6EB3"/>
		<stop  offset="0.7847" style="stop-color:#2C345E"/>
	</linearGradient>
	<path style="fill:url(#SVGID_00000043415540393449786100000014705224616532343713_);" d="M376.5,109.3c0.3,0.7,0.4,1.6,0.1,2.3
		l-71.1,171.6l70.9,40.7c1-1.8,1.6-3.9,1.6-6.1V115.1C378,113,377.5,111,376.5,109.3z M358,288.9c0,3.9-4.2,6.3-7.6,4.3l-22.7-13.3
		c-2.7-1.5-3.8-4.9-2.7-7.7l31.3-76.7c0.4-0.9,1.6-0.6,1.6,0.3V288.9z"/>
	
		<linearGradient id="SVGID_00000041985072670030127040000010296350084074448784_" gradientUnits="userSpaceOnUse" x1="77.1697" y1="36.568" x2="153.8082" y2="115.5963">
		<stop  offset="0.3292" style="stop-color:#CCE8E1"/>
		<stop  offset="0.4351" style="stop-color:#C6E6DF"/>
		<stop  offset="0.5767" style="stop-color:#B5E2D9"/>
		<stop  offset="0.7384" style="stop-color:#99DACF"/>
		<stop  offset="0.9137" style="stop-color:#73D0C2"/>
		<stop  offset="1" style="stop-color:#5DCABA"/>
	</linearGradient>
	<path style="fill:url(#SVGID_00000041985072670030127040000010296350084074448784_);" d="M182.7,1.7C182.7,1.7,182.7,1.7,182.7,1.7
		c-0.1,0.1-0.1,0.1-0.2,0.1l-73.7,43.5L6,106.1c-1.8,1.1-3.2,2.5-4.3,4.2c0.4-0.6,1.1-1.1,2-1.3l185-27.3V0.1
		C186.6,0.1,184.6,0.6,182.7,1.7z M174.5,64.2c0,3.1-2.2,5.8-5.3,6.2L87,83c-0.9,0.1-1.3-1.1-0.6-1.6l80.5-47
		c3.3-1.9,7.5,0.5,7.5,4.3V64.2z"/>
	
		<linearGradient id="SVGID_00000067211196837677124290000017494752553257880194_" gradientUnits="userSpaceOnUse" x1="207.0331" y1="399.5397" x2="16.0453" y2="298.4629">
		<stop  offset="3.494723e-03" style="stop-color:#414C80"/>
		<stop  offset="0.221" style="stop-color:#46548E"/>
		<stop  offset="0.3923" style="stop-color:#5A74AD"/>
		<stop  offset="0.4642" style="stop-color:#557DA6"/>
		<stop  offset="0.5359" style="stop-color:#50829E"/>
		<stop  offset="0.6007" style="stop-color:#468C8F"/>
		<stop  offset="0.684" style="stop-color:#419186"/>
	</linearGradient>
	<path style="fill:url(#SVGID_00000067211196837677124290000017494752553257880194_);" d="M187.4,431.8L72.7,284.2L1.7,325.5
		c1.1,1.8,2.6,3.4,4.5,4.4c0,0,0,0,0,0l177.4,101.4c0,0,0,0,0,0c1.8,1,3.8,1.5,5.8,1.6C188.6,432.8,187.9,432.5,187.4,431.8z
		 M120.8,372.2l-78.2-44.8c-3.3-1.9-3.4-6.6-0.1-8.6l21.9-13.4c2.7-1.6,6.1-0.9,8.1,1.6l49.5,64.1
		C122.5,371.6,121.6,372.6,120.8,372.2z"/>
	
		<linearGradient id="SVGID_00000021106509829694093430000001600978245440164507_" gradientUnits="userSpaceOnUse" x1="131.1791" y1="183.2824" x2="2.6069" y2="108.7765">
		<stop  offset="0" style="stop-color:#B9E3DC"/>
		<stop  offset="0.3023" style="stop-color:#5DCABA"/>
		<stop  offset="0.6403" style="stop-color:#52B1A4"/>
		<stop  offset="0.9995" style="stop-color:#367C73"/>
	</linearGradient>
	<path style="fill:url(#SVGID_00000021106509829694093430000001600978245440164507_);" d="M3.7,109.1c-0.9,0.1-1.6,0.6-2,1.3
		c-0.1,0.1-0.1,0.2-0.2,0.3c0,0,0,0,0,0c0,0,0,0.1,0,0.1c0,0,0,0,0,0c-0.3,0.7-0.4,1.6-0.1,2.4l71.2,171.2l116-202.5L3.7,109.1z
		 M155.8,111L81,241.6c-2.6,4.5-9.2,4.1-11.2-0.7L22.9,128.2c-1.6-3.7,0.8-8,4.8-8.6l121.7-18C154.6,100.9,158.4,106.5,155.8,111z"
		/>
	
		<linearGradient id="SVGID_00000091715142525932884960000000047363230790638734_" gradientUnits="userSpaceOnUse" x1="131.1805" y1="183.2839" x2="2.6049" y2="108.7762">
		<stop  offset="0" style="stop-color:#B9E3DC"/>
		<stop  offset="0.3023" style="stop-color:#5DCABA"/>
		<stop  offset="0.6403" style="stop-color:#52B1A4"/>
		<stop  offset="0.9995" style="stop-color:#367C73"/>
	</linearGradient>
	<path style="fill:url(#SVGID_00000091715142525932884960000000047363230790638734_);" d="M3.7,109.1c-0.9,0.1-1.6,0.6-2,1.3
		c-0.1,0.1-0.1,0.2-0.2,0.3c0,0,0,0,0,0c0,0,0,0.1-0.1,0.1c0,0,0,0,0,0c-0.3,0.7-0.4,1.6-0.1,2.4l71.2,171.2l116-202.5L3.7,109.1z
		 M155.8,111L81,241.6c-2.6,4.5-9.2,4.1-11.2-0.7L22.9,128.2c-1.6-3.7,0.8-8,4.8-8.6l121.7-18C154.6,100.9,158.4,106.5,155.8,111z"
		/>
	
		<linearGradient id="SVGID_00000160174882407929934980000012481447396964636086_" gradientUnits="userSpaceOnUse" x1="66.7706" y1="338.3687" x2="296.7114" y2="363.4432">
		<stop  offset="0" style="stop-color:#65A69F"/>
		<stop  offset="0.4117" style="stop-color:#5D6EAF"/>
		<stop  offset="0.8399" style="stop-color:#4C6094"/>
		<stop  offset="0.9995" style="stop-color:#2A365D"/>
	</linearGradient>
	<path style="fill:url(#SVGID_00000160174882407929934980000012481447396964636086_);" d="M72.7,284.2l114.7,147.6
		c0.5,0.7,1.2,1,2,1.1c0,0,0,0,0,0c0.1,0,0.2,0,0.3,0c0,0,0.1,0,0.1,0c0.1,0,0.1,0,0.2,0c0,0,0,0,0,0c0.8-0.1,1.5-0.5,2-1.1
		l113.4-148.6L72.7,284.2z M113.9,298.1l150.5-0.7c5.2,0,8.1,5.9,5,10l-74.8,98c-2.5,3.2-7.4,3.3-9.9,0L109,308.1
		C105.8,304.1,108.7,298.1,113.9,298.1z"/>
	
		<linearGradient id="SVGID_00000031910620842324866010000016447969592038573455_" gradientUnits="userSpaceOnUse" x1="66.772" y1="338.3677" x2="296.7125" y2="363.4422">
		<stop  offset="0" style="stop-color:#65A69F"/>
		<stop  offset="0.4117" style="stop-color:#5D6EAF"/>
		<stop  offset="0.8399" style="stop-color:#4C6094"/>
		<stop  offset="0.9995" style="stop-color:#2A365D"/>
	</linearGradient>
	<path style="fill:url(#SVGID_00000031910620842324866010000016447969592038573455_);" d="M72.7,284.2l114.7,147.6
		c0.5,0.7,1.2,1,2,1.1c0.1,0,0.2,0,0.4,0c0,0,0.1,0,0.1,0c0.1,0,0.1,0,0.2,0c0,0,0,0,0,0c0.8-0.1,1.5-0.5,2-1.1l113.4-148.6
		L72.7,284.2z M194.5,405.4c-2.5,3.2-7.4,3.3-9.9,0.1L109,308.1c-3.2-4.1-0.3-10,4.9-10.1l150.5-0.7c5.2,0,8.1,5.9,5,10L194.5,405.4
		z"/>
	
		<linearGradient id="SVGID_00000018202772875000280430000012778546701489592236_" gradientUnits="userSpaceOnUse" x1="225.3353" y1="52.3083" x2="369.5385" y2="231.7109">
		<stop  offset="0" style="stop-color:#80D1C8"/>
		<stop  offset="0.1555" style="stop-color:#6B98BA"/>
		<stop  offset="0.3033" style="stop-color:#5F7DAF"/>
		<stop  offset="0.4041" style="stop-color:#5972AC"/>
		<stop  offset="0.7855" style="stop-color:#485E8D"/>
		<stop  offset="0.8454" style="stop-color:#4C6191"/>
		<stop  offset="0.9103" style="stop-color:#596B9D"/>
		<stop  offset="0.9774" style="stop-color:#6F7BB0"/>
		<stop  offset="1" style="stop-color:#7882B8"/>
	</linearGradient>
	<path style="fill:url(#SVGID_00000018202772875000280430000012778546701489592236_);" d="M376.5,109.3
		C376.5,109.3,376.5,109.2,376.5,109.3C376.5,109.2,376.5,109.2,376.5,109.3c-0.1-0.2-0.2-0.4-0.3-0.5c0,0,0,0,0,0
		c-0.4-0.6-1.1-1.1-2-1.2L188.7,81.8l116.8,201.5l71.1-171.6C376.9,110.8,376.8,110,376.5,109.3z M296.8,240.3l-75.1-129.6
		c-2.6-4.5,1.1-10,6.3-9.3l120.6,17c4,0.6,6.4,4.7,4.9,8.5L308,239.6C306,244.4,299.4,244.8,296.8,240.3z"/>
	
		<linearGradient id="SVGID_00000102524729756424104030000013237653415990349451_" gradientUnits="userSpaceOnUse" x1="225.3383" y1="52.3087" x2="369.5395" y2="231.7088">
		<stop  offset="0" style="stop-color:#80D1C8"/>
		<stop  offset="0.1555" style="stop-color:#6B98BA"/>
		<stop  offset="0.3033" style="stop-color:#5F7DAF"/>
		<stop  offset="0.4041" style="stop-color:#5972AC"/>
		<stop  offset="0.7855" style="stop-color:#485E8D"/>
		<stop  offset="0.8454" style="stop-color:#4C6191"/>
		<stop  offset="0.9103" style="stop-color:#596B9D"/>
		<stop  offset="0.9774" style="stop-color:#6F7BB0"/>
		<stop  offset="1" style="stop-color:#7882B8"/>
	</linearGradient>
	<path style="fill:url(#SVGID_00000102524729756424104030000013237653415990349451_);" d="M376.5,109.3
		C376.5,109.3,376.5,109.2,376.5,109.3C376.5,109.2,376.4,109.2,376.5,109.3c-0.1-0.2-0.2-0.4-0.3-0.5c0,0,0,0,0,0
		c-0.5-0.6-1.1-1.1-2-1.2L188.7,81.8l116.8,201.5l71.1-171.6C376.9,110.8,376.8,110,376.5,109.3z M296.8,240.3l-75.1-129.6
		c-2.6-4.5,1.1-10,6.3-9.3l120.6,17c4,0.6,6.4,4.7,4.9,8.5L308,239.6C306,244.4,299.4,244.8,296.8,240.3z"/>
</g>
</svg>
